# Blender v2.75 (sub 0) OBJ File: ''
# www.blender.org
mtllib preview.mtl
o Dec2
v -0.324206 1.290955 0.239524
v -0.484206 1.290955 -0.150476
v -0.414206 1.100952 -0.110476
v -0.294206 1.100952 0.169524
v 0.055794 1.290955 0.079524
v -0.014206 1.100952 0.049524
v -0.104206 1.290955 -0.310476
v -0.134206 1.100952 -0.230476
v -0.364206 1.950951 -0.090476
v -0.154206 1.950951 -0.170476
v -0.274206 1.940956 0.119524
v -0.074206 1.940956 0.029524
v -0.284206 2.630951 0.009524
v -0.154206 2.630951 -0.040476
v -0.134206 2.080956 -0.240476
v -0.424206 2.080956 -0.120476
v -0.094206 2.570953 0.099524
v -0.014206 2.050949 0.059524
v -0.224206 2.570953 0.149524
v -0.304206 2.050949 0.179524
v -0.154206 1.950951 -0.170476
v -0.364206 1.950951 -0.090476
v -0.074206 1.940956 0.029524
v -0.274206 1.940956 0.119524
v -0.194206 3.140953 0.199524
v -0.084206 3.140953 0.149524
v -0.114206 2.740952 -0.060476
v -0.314206 2.740952 0.019524
v -0.044206 3.060951 0.249524
v -0.034206 2.650955 0.129524
v -0.144206 3.060951 0.289524
v -0.234206 2.650955 0.209524
v -0.154206 2.630951 -0.040476
v -0.284206 2.630951 0.009524
v -0.094206 2.570953 0.099524
v -0.224206 2.570953 0.149524
v -0.214206 3.230949 0.219524
v -0.064206 3.230949 0.159524
v -0.084206 3.140953 0.149524
v -0.194206 3.140953 0.199524
v -0.084206 3.500954 0.389524
v -0.034206 3.500954 0.359524
v -0.004206 3.110954 0.299524
v -0.044206 3.060951 0.249524
v -0.014206 3.450951 0.409524
v -0.064206 3.450951 0.439524
v -0.154206 3.120956 0.369524
v -0.144206 3.060951 0.289524
v 0.285794 0.280953 -2.110476
v -1.044206 0.280953 -1.920476
v -0.804206 0.860955 -1.760476
v 0.375794 1.110955 -1.980476
v -0.414206 0.950951 0.929524
v -0.424206 0.860954 1.659523
v 0.085794 0.780952 1.519524
v 0.215794 1.110954 1.019524
v -0.424206 1.070953 0.389524
v 0.255794 1.110954 0.339524
v -0.424206 1.070953 -0.250476
v 0.215794 1.110954 -0.250476
v -1.094206 0.860954 0.989524
v -1.054206 0.780952 1.659523
v -1.284206 0.280953 -1.310477
v -1.004206 0.860954 -1.090477
v -0.604206 1.110954 -0.770476
v -0.334206 1.110955 -1.530476
v -1.194206 0.860954 0.209524
v -1.694206 0.700951 1.019524
v -1.504206 0.620956 1.439523
v -1.624206 0.700951 0.439524
v -1.054206 0.950951 -0.250476
v -1.364206 0.280953 -0.610477
v -1.334206 0.280952 0.049523
v 0.545794 0.280952 0.249523
v 0.465794 0.280953 -0.550477
v -1.744206 0.280952 1.699523
v -1.174206 0.280952 1.919523
v -2.004206 0.280952 1.089524
v 0.465794 0.280952 1.089524
v -1.934206 0.280952 0.299524
v -0.344206 0.280952 1.919523
v 0.315794 0.280952 1.779524
v 0.865794 2.700951 -0.880476
v 1.085794 2.760956 -0.940476
v 1.185794 2.760956 -1.210476
v 0.885794 2.700951 -1.510476
v 1.785794 1.940956 -0.730476
v 1.005794 1.940956 -0.550476
v 1.895794 1.940956 -1.190476
v 0.375794 1.940956 -0.520476
v 0.505794 2.470955 -0.890476
v -0.104206 1.790955 -1.630476
v 0.075794 1.700951 -0.790476
v 0.345794 1.940956 -1.930476
v 1.275794 1.940956 -1.830476
v 0.515794 2.470955 -1.590476
v -0.334206 1.110955 -1.530476
v 0.375794 1.110955 -1.980476
v 0.285794 0.280953 -2.110476
v -0.334206 0.270951 -1.530476
v -0.604206 1.110954 -0.770476
v -0.604206 0.270950 -0.770477
v -0.424206 0.230949 -0.250477
v -0.424206 1.070953 -0.250476
v 0.215794 1.110954 -0.250476
v 0.465794 0.280953 -0.550477
v 1.455794 1.110954 -0.400476
v 1.355794 0.280953 -0.520477
v 2.155794 1.050949 -0.430476
v 2.155794 0.210953 -0.430477
v 2.245794 1.050949 -1.020476
v 2.265794 0.280953 -1.370476
v 1.425794 1.230950 -1.950476
v 1.305794 0.280953 -2.290477
v -1.494206 -0.049049 -1.080477
v -1.614206 -0.049049 -0.320477
v -1.364206 0.280953 -0.610477
v -1.284206 0.280953 -1.310477
v -0.924206 -0.049049 -2.270477
v -1.044206 0.280953 -1.920476
v 0.285794 0.280953 -2.110476
v 0.175794 -0.049049 -2.390476
v 0.545794 0.280952 0.249523
v 0.465794 0.280952 1.089524
v 1.295794 0.050949 1.089523
v 1.295794 0.050949 0.269523
v -1.174206 0.280952 1.919523
v -1.204206 -0.049050 2.109524
v -0.374206 -0.049050 2.139524
v -0.344206 0.280952 1.919523
v -2.234206 -0.049049 0.349523
v -2.284206 -0.049050 0.969523
v -2.004206 0.280952 1.089524
v -1.934206 0.280952 0.299524
v -2.184206 -0.049050 1.589523
v -1.744206 0.280952 1.699523
v 0.315794 0.280952 1.779524
v 1.165794 -0.049050 1.519523
v 1.305794 0.280953 -2.290477
v 1.245794 -0.049049 -2.670476
v -1.474206 -0.049049 -1.650477
v 0.245794 -0.049050 2.019524
v -1.804206 -0.049050 1.919523
v 2.155794 0.210953 -0.430477
v 2.835794 0.040955 -0.370477
v 2.855794 0.040955 -1.350477
v 2.265794 0.280953 -1.370476
v 1.295794 0.050949 0.269523
v 2.115794 0.040955 0.129523
v 1.355794 0.280953 -0.520477
v 2.445794 0.040955 -2.180476
v 1.305794 0.280953 -2.290477
v 0.365794 3.260956 0.339524
v 0.055794 3.220955 0.709524
v 0.125794 2.740952 0.719524
v 0.425794 2.780952 0.349524
v 0.045794 4.000954 0.049524
v 0.335794 3.760956 0.339524
v 0.685794 3.810951 0.019524
v 0.395794 4.050949 -0.270476
v 0.415794 3.740952 0.189524
v 0.395794 3.630951 0.649524
v 0.825794 3.440956 0.629524
v 0.855794 3.560951 0.159524
v -0.014206 3.400955 0.779524
v -0.364206 3.690956 0.639524
v -0.674206 3.450951 0.919524
v -0.314206 3.170952 1.069524
v -0.094206 3.880951 0.639524
v -0.164206 3.980949 0.179524
v -0.584206 4.200951 0.289524
v -0.514206 4.090950 0.749524
v 0.365794 3.630951 0.639524
v -0.004206 3.620956 0.939524
v 0.245794 3.350952 1.249524
v 0.605794 3.360954 0.939524
v 0.215794 3.570953 -0.090476
v 0.385794 3.290955 0.269524
v 0.515794 2.960953 -0.050476
v 0.355794 3.240952 -0.390476
v -0.444206 3.660950 0.579524
v -0.354206 3.850952 0.139524
v -0.824206 3.810951 0.029524
v -0.914206 3.630951 0.469524
v -0.174206 3.840950 -0.010476
v 0.265794 3.650955 0.009524
v 0.265794 3.600952 -0.460476
v -0.174206 3.790955 -0.480476
v 0.465794 0.280953 -0.550477
v -2.134206 -0.049049 -0.010477
v -1.974206 -0.049050 1.899523
v 0.835794 -0.049050 1.849523
v -1.254206 -0.049049 -2.080477
v -1.334206 0.280952 0.049523
v 1.355794 0.280953 -0.520477
v 2.145794 0.040955 -2.620476
v 2.515794 0.040955 -0.030477
v 1.245794 -0.049049 -2.670476
v 0.125794 2.740952 0.719524
v -0.014206 2.310951 0.239524
v 0.425794 2.780952 0.349524
v 0.365794 3.260956 0.339524
v -0.034206 3.480949 0.339524
v 0.055794 3.220955 0.709524
v 0.685794 3.810951 0.019524
v 0.695794 3.560951 -0.590476
v 0.395794 4.050949 -0.270476
v 0.045794 4.000954 0.049524
v -0.094206 3.620956 0.269524
v 0.335794 3.760956 0.339524
v 0.825794 3.440956 0.629524
v 1.025794 2.930954 0.269524
v 0.855794 3.560951 0.159524
v 0.415794 3.740952 0.189524
v 0.045794 3.550949 0.369524
v 0.395794 3.630951 0.649524
v -0.674206 3.450951 0.919524
v -0.844206 2.810951 0.879524
v -0.314206 3.170952 1.069524
v -0.014206 3.400955 0.779524
v -0.064206 3.510956 0.339524
v -0.364206 3.690956 0.639524
v -0.584206 4.200951 0.289524
v -1.114206 3.910950 0.559524
v -0.514206 4.090950 0.749524
v -0.094206 3.880951 0.639524
v -0.014206 3.570953 0.309524
v -0.164206 3.980949 0.179524
v 0.245794 3.350952 1.249524
v 0.475794 2.740951 1.129524
v 0.605794 3.360954 0.939524
v 0.365794 3.630951 0.639524
v -0.064206 3.560951 0.489524
v -0.004206 3.620956 0.939524
v 0.515794 2.960953 -0.050476
v 0.135794 2.620956 -0.440476
v 0.355794 3.240952 -0.390476
v 0.215794 3.570953 -0.090476
v -0.024206 3.500954 0.299524
v 0.385794 3.290955 0.269524
v -0.824206 3.810951 0.029524
v -1.174206 3.250954 -0.010476
v -0.914206 3.630951 0.469524
v -0.444206 3.660950 0.579524
v -0.084206 3.530952 0.329524
v -0.354206 3.850952 0.139524
v 0.265794 3.600952 -0.460476
v -0.154206 3.230949 -0.820476
v -0.174206 3.790955 -0.480476
v -0.174206 3.840950 -0.010476
v -0.064206 3.530952 0.309524
v 0.265794 3.650955 0.009524
vt 0.125000 0.312500
vt 0.246094 0.312500
vt 0.246094 0.496094
vt 0.125000 0.496094
vt 0.000000 0.496094
vt 0.000000 0.312500
vt 0.121094 0.312500
vt 0.121094 0.496094
vt 0.371094 0.902344
vt 0.343750 0.902344
vt 0.343750 0.875000
vt 0.371094 0.875000
vt 0.277344 0.902344
vt 0.250000 0.902344
vt 0.250000 0.875000
vt 0.277344 0.875000
vt 0.308594 0.902344
vt 0.281250 0.902344
vt 0.281250 0.875000
vt 0.308594 0.875000
vt 0.339844 0.902344
vt 0.312500 0.902344
vt 0.312500 0.875000
vt 0.339844 0.875000
vt 0.339844 0.996094
vt 0.312500 0.996094
vt 0.312500 0.906250
vt 0.339844 0.906250
vt 0.371094 0.996094
vt 0.343750 0.996094
vt 0.343750 0.906250
vt 0.371094 0.906250
vt 0.277344 0.996094
vt 0.250000 0.996094
vt 0.250000 0.906250
vt 0.277344 0.906250
vt 0.308594 0.996094
vt 0.281250 0.996094
vt 0.281250 0.906250
vt 0.308594 0.906250
vt 0.875000 0.746094
vt 0.875000 0.625000
vt 0.996094 0.625000
vt 0.996094 0.746094
vt 0.875000 0.621094
vt 0.875000 0.500000
vt 0.996094 0.500000
vt 0.996094 0.621094
vt 0.750000 0.746094
vt 0.750000 0.625000
vt 0.871094 0.625000
vt 0.871094 0.746094
vt 0.750000 0.621094
vt 0.750000 0.500000
vt 0.871094 0.500000
vt 0.871094 0.621094
vt 0.808594 0.058594
vt 0.750000 0.058594
vt 0.750000 0.000000
vt 0.808594 0.000000
vt 0.621094 0.000000
vt 0.621094 0.058594
vt 0.562500 0.058594
vt 0.562500 0.000000
vt 0.625000 0.000000
vt 0.683594 0.000000
vt 0.683594 0.058594
vt 0.625000 0.058594
vt 0.500000 0.000000
vt 0.558594 0.000000
vt 0.558594 0.058594
vt 0.500000 0.058594
vt 0.687500 0.000000
vt 0.746094 0.000000
vt 0.746094 0.058594
vt 0.687500 0.058594
vt 0.000000 0.000000
vt 0.812500 0.437500
vt 0.871094 0.437500
vt 0.871094 0.496094
vt 0.812500 0.496094
vt 0.812500 0.000000
vt 0.871094 0.000000
vt 0.871094 0.058594
vt 0.812500 0.058594
vt 0.558594 0.496094
vt 0.500000 0.496094
vt 0.500000 0.437500
vt 0.558594 0.437500
vt 0.558594 0.433594
vt 0.500000 0.433594
vt 0.500000 0.375000
vt 0.558594 0.375000
vt 0.562500 0.437500
vt 0.621094 0.437500
vt 0.621094 0.496094
vt 0.562500 0.496094
vt 0.621094 0.433594
vt 0.562500 0.433594
vt 0.562500 0.375000
vt 0.621094 0.375000
vt 0.625000 0.437500
vt 0.683594 0.437500
vt 0.683594 0.496094
vt 0.625000 0.496094
vt 0.683594 0.433594
vt 0.625000 0.433594
vt 0.625000 0.375000
vt 0.683594 0.375000
vt 0.687500 0.437500
vt 0.746094 0.437500
vt 0.746094 0.496094
vt 0.687500 0.496094
vt 0.746094 0.433594
vt 0.687500 0.433594
vt 0.687500 0.375000
vt 0.746094 0.375000
vt 0.750000 0.437500
vt 0.808594 0.437500
vt 0.808594 0.496094
vt 0.750000 0.496094
vt 0.808594 0.433594
vt 0.750000 0.433594
vt 0.750000 0.375000
vt 0.808594 0.375000
vt 0.933594 0.437500
vt 0.933594 0.496094
vt 0.875000 0.496094
vt 0.875000 0.437500
vt 0.937500 0.437500
vt 0.996094 0.496094
vt 0.937500 0.496094
vt 0.933594 0.718750
vt 0.906250 0.746094
vt 0.906250 0.718750
vt 0.621094 0.996094
vt 0.621094 0.875000
vt 0.500000 0.875000
vt 0.500000 0.996094
vt 0.933594 0.746094
vn -0.179600 0.238300 -0.954400
vn -0.835400 0.468600 -0.287200
vn -0.880700 0.462700 -0.101400
vn -0.930500 0.360900 -0.062400
vn 0.942000 0.325500 -0.081300
vn -0.394400 0.599900 0.696100
vn -0.681400 0.644100 0.347700
vn 0.948500 0.307700 0.074900
vn -0.435200 0.432700 -0.789600
vn -0.798600 0.596300 -0.081600
vn -0.023800 0.434400 0.900400
vn 0.235400 0.475600 0.847600
vn 0.866300 0.390100 0.312000
vn -0.890000 -0.263600 0.372000
vn 0.375800 -0.272600 0.885700
vn 0.885300 -0.281700 -0.370000
vn -0.370700 -0.314900 -0.873700
vn -0.372000 0.158300 -0.914600
vn -0.913700 0.136100 0.383000
vn 0.391800 0.143000 0.908900
vn 0.916500 0.151400 -0.370300
vn -0.357400 0.303900 -0.883100
vn 0.924300 0.163700 -0.344700
vn 0.375200 -0.008900 0.926900
vn -0.904300 0.148500 0.400300
vn -0.343100 -0.382700 -0.857800
vn 0.860200 -0.348700 -0.372000
vn 0.361900 -0.394800 0.844500
vn -0.869800 -0.367400 0.329300
vn -0.342800 0.462800 -0.817500
vn 0.939500 0.109100 -0.324800
vn 0.359200 -0.254100 0.898000
vn -0.884200 0.081600 0.460000
vn -0.366400 -0.025600 -0.930100
vn 0.775700 -0.381800 -0.502600
vn 0.309000 -0.537800 0.784400
vn -0.921400 -0.289500 0.259300
vn -0.385100 0.151700 -0.910300
vn -0.328900 0.598200 -0.730800
vn 0.857800 -0.158000 -0.489100
vn 0.948600 0.118100 -0.293700
vn 0.352500 0.728400 0.587500
vn 0.231800 -0.768300 0.596700
vn 0.417800 -0.281900 0.863700
vn -0.933300 -0.308800 0.183300
vn -0.876900 0.137300 0.460600
vn -0.052500 0.946900 0.317300
vn -0.153000 0.983800 0.093000
vn -0.060400 0.998200 0.002000
vn -0.122200 0.984900 0.122200
vn -0.425500 0.894100 -0.139800
vn -0.209900 0.972000 0.105900
vn -0.318900 0.925800 0.203200
vn -0.295200 0.955400 0.006500
vn -0.337400 0.941300 -0.002400
vn -0.235200 0.970700 0.049500
vn -0.212400 0.976800 -0.028300
vn 0.190100 0.406500 0.893700
vn 0.726800 0.654200 0.209100
vn -0.092500 0.474300 0.875500
vn -0.457500 0.885800 0.078100
vn 0.041300 0.460700 -0.886600
vn 0.590300 0.527000 -0.611400
vn -0.610000 0.094100 -0.786800
vn -0.546500 0.044700 -0.836300
vn -0.532000 0.846600 -0.012000
vn -0.945000 -0.000000 0.327100
vn -0.962100 0.272600 0.009100
vn -0.379400 0.574100 0.725600
vn 0.198600 -0.144400 0.969400
vn 0.092500 0.259400 0.961300
vn 0.054600 -0.240300 0.969200
vn 0.145800 0.314900 0.937900
vn -0.045800 -0.068900 0.996600
vn 0.896900 0.407900 0.170800
vn 0.991500 -0.015700 0.128900
vn 0.732500 0.208700 -0.648000
vn 0.713000 0.225000 -0.664100
vn 0.058100 0.116200 -0.991500
vn -0.084900 0.263700 -0.960900
vn -0.942300 0.000000 -0.334800
vn -0.813400 0.581600 -0.013000
vn -0.261800 0.872200 -0.413100
vn -0.625900 0.730600 0.272900
vn 0.610300 -0.670200 0.422400
vn 0.431300 0.784200 0.446100
vn 0.750100 0.616100 -0.240200
vn -0.307400 0.559100 0.770000
vn 0.951000 0.279700 0.132100
vn -0.368300 0.907700 0.201000
vn -0.359500 0.037200 0.932400
vn 0.601700 0.788300 0.128700
vn -0.353700 0.896100 0.268100
vn 0.943900 0.322000 -0.073600
vn 0.648000 0.095700 0.755600
vn -0.120200 0.986000 -0.115400
vn 0.790600 -0.234900 -0.565500
vn 0.438900 0.797800 0.413300
vn -0.848600 0.527400 0.042200
vn 0.553000 0.717800 0.423100
vn 0.256800 0.508300 -0.822000
vn 0.289700 0.735300 0.612700
vn -0.855700 0.504000 -0.117200
vn -0.092000 0.686800 -0.721000
vn 0.279400 0.960100 0.013500
vn -0.015300 0.528600 0.848700
vn -0.746300 0.662600 -0.063500
vn -0.696100 0.688400 0.203700
vn 0.334900 0.927400 0.166500
vn -0.149600 0.718100 -0.679600
vn -0.768600 0.617000 -0.169300
vn 0.166700 0.546700 0.820600
vn -0.279600 0.533900 0.798000
vn 0.303600 0.951200 0.055200
vn 0.056100 0.956100 0.287500
vn 0.276100 0.936500 -0.216100
vn 0.293800 0.955400 -0.029400
vn -0.739500 0.641100 -0.205400
vn -0.096500 0.564200 0.820000
vn 0.233200 0.539100 0.809300
vn -0.699500 0.618600 -0.357900
vn -0.227700 0.805900 -0.546500
vn -0.009400 0.960300 0.278900
vn -0.781300 0.623100 0.035500
vn -0.401500 0.593600 -0.697400
vn 0.438700 0.784300 0.438700
vn -0.610200 0.675800 0.413400
vn -0.341500 0.745100 -0.572900
vn 0.217400 0.964800 -0.148200
vn 0.220000 0.953300 0.207100
vn -0.039600 0.757500 -0.651600
vn 0.118500 0.947800 0.296200
vn 0.760200 0.116300 0.639200
vn 0.275000 0.857600 0.434700
vn 0.391500 0.888100 0.240700
vn 0.206000 0.635300 0.744300
vn 0.477900 0.869300 0.125700
vn 0.350800 0.823000 0.446800
vn 0.896800 0.436200 -0.073800
vn -0.152100 0.921800 0.356500
vn 0.398300 0.912100 -0.097000
usemtl 7
s off
f 49/1/1 50/2/1 51/3/1 52/4/1
f 51/5/2 50/6/2 63/7/2 64/8/2
f 64/4/3 63/1/3 72/2/3 71/3/3
f 71/5/4 72/6/4 73/7/4 67/8/4
f 74/1/5 75/2/5 60/3/5 58/4/5
f 76/6/6 77/7/6 62/8/6 69/5/6
f 78/1/7 76/2/7 69/3/7 68/4/7
f 79/6/8 74/7/8 58/8/8 56/5/8
f 73/1/9 80/2/9 70/3/9 67/4/9
f 80/6/10 78/7/10 68/8/10 70/5/10
f 77/1/11 81/2/11 54/3/11 62/4/11
f 81/6/12 82/7/12 55/8/12 54/5/12
f 82/1/13 79/2/13 56/3/13 55/4/13
usemtl 6
f 1/9/14 2/10/14 3/11/14 4/12/14
f 5/13/15 1/14/15 4/15/15 6/16/15
f 7/17/16 5/18/16 6/19/16 8/20/16
f 2/21/17 7/22/17 8/23/17 3/24/17
f 9/25/18 10/26/18 7/27/18 2/28/18
f 11/29/19 9/30/19 2/31/19 1/32/19
f 12/33/20 11/34/20 1/35/20 5/36/20
f 10/37/21 12/38/21 5/39/21 7/40/21
f 13/29/22 14/30/22 15/31/22 16/32/22
f 14/25/23 17/26/23 18/27/23 15/28/23
f 17/37/24 19/38/24 20/39/24 18/40/24
f 19/33/25 13/34/25 16/35/25 20/36/25
f 16/9/26 15/10/26 21/11/26 22/12/26
f 15/9/27 18/10/27 23/11/27 21/12/27
f 18/9/28 20/10/28 24/11/28 23/12/28
f 20/13/29 16/14/29 22/15/29 24/16/29
f 25/29/30 26/30/30 27/31/30 28/32/30
f 26/25/31 29/26/31 30/27/31 27/28/31
f 29/37/32 31/38/32 32/39/32 30/40/32
f 31/33/33 25/34/33 28/35/33 32/36/33
f 28/13/34 27/14/34 33/15/34 34/16/34
f 27/13/35 30/14/35 35/15/35 33/16/35
f 30/13/36 32/14/36 36/15/36 35/16/36
f 32/13/37 28/14/37 34/15/37 36/16/37
f 37/13/38 38/14/38 39/15/38 40/16/38
f 38/29/39 37/30/39 41/31/39 42/32/39
f 38/13/40 43/14/40 44/15/40 39/16/40
f 43/25/41 38/26/41 42/27/41 45/28/41
f 41/13/42 46/14/42 45/15/42 42/16/42
f 43/13/43 47/14/43 48/15/43 44/16/43
f 47/37/44 43/38/44 45/39/44 46/40/44
f 47/13/45 37/14/45 40/15/45 48/16/45
f 37/33/46 47/34/46 46/35/46 41/36/46
f 53/41/47 54/42/47 55/43/47 56/44/47
f 57/45/48 53/46/48 56/47/48 58/48/48
f 59/41/49 57/42/49 58/43/49 60/44/49
f 61/49/50 62/50/50 54/51/50 53/52/50
f 65/51/51 66/52/51 51/49/51 64/50/51
f 67/53/52 61/54/52 53/55/52 57/56/52
f 68/51/53 69/52/53 62/49/53 61/50/53
f 70/51/54 68/52/54 61/49/54 67/50/54
f 71/54/55 59/55/55 65/56/55 64/53/55
f 67/50/56 57/51/56 59/52/56 71/49/56
f 83/57/57 84/58/57 85/59/57 86/60/57
f 87/61/58 84/62/58 83/63/58 88/64/58
f 87/65/59 89/66/59 85/67/59 84/68/59
f 90/69/60 88/70/60 83/71/60 91/72/60
f 92/57/61 93/58/61 90/59/61 94/60/61
f 95/59/62 94/60/62 96/57/62 86/58/62
f 89/73/63 95/74/63 86/75/63 85/76/63
f 97/77/64 98/77/64 99/77/64 100/77/64
f 98/78/65 97/79/65 92/80/65 94/81/65
f 91/57/66 83/58/66 86/59/66 96/60/66
f 101/77/67 102/77/67 103/77/67 104/77/67
f 94/82/68 90/83/68 91/84/68 96/85/68
f 104/86/69 105/87/69 90/88/69 93/89/69
f 105/77/70 104/77/70 103/77/70 106/77/70
f 105/88/71 107/89/71 88/86/71 90/87/71
f 107/90/72 105/91/72 106/92/72 108/93/72
f 107/94/73 109/95/73 87/96/73 88/97/73
f 109/98/74 107/99/74 108/100/74 110/101/74
f 109/102/75 111/103/75 89/104/75 87/105/75
f 111/106/76 109/107/76 110/108/76 112/109/76
f 111/110/77 113/111/77 95/112/77 89/113/77
f 113/114/78 111/115/78 112/116/78 114/117/78
f 113/118/79 98/119/79 94/120/79 95/121/79
f 98/122/80 113/123/80 114/124/80 99/125/80
f 97/77/81 100/77/81 102/77/81 101/77/81
f 101/126/82 93/127/82 92/128/82 97/129/82
f 52/53/83 51/54/83 66/56/83
f 101/130/84 104/131/84 93/132/84
usemtl 131081
f 199/133/85 200/134/85 201/135/85
f 202/133/86 203/134/86 204/135/86
f 205/133/87 206/134/87 207/135/87
f 208/133/88 209/134/88 210/135/88
f 211/133/89 212/134/89 213/135/89
f 214/133/90 215/134/90 216/135/90
f 217/133/91 218/134/91 219/135/91
f 220/133/92 221/134/92 222/135/92
f 223/133/93 224/134/93 225/135/93
f 226/133/94 227/134/94 228/135/94
f 229/133/95 230/134/95 231/135/95
f 232/133/96 233/134/96 234/135/96
f 235/133/97 236/134/97 237/135/97
f 238/133/98 239/134/98 240/135/98
f 241/133/99 242/134/99 243/135/99
f 244/133/100 245/134/100 246/135/100
f 247/133/101 248/134/101 249/135/101
f 250/133/102 251/134/102 252/135/102
usemtl 8
f 115/136/103 116/137/103 117/138/103 118/139/103
f 119/137/104 120/138/104 121/139/104 122/136/104
f 123/138/105 124/139/105 125/136/105 126/137/105
f 127/138/106 128/137/106 129/136/106 130/139/106
f 131/136/107 132/137/107 133/138/107 134/139/107
f 132/137/108 135/136/108 136/139/108 133/138/108
f 124/139/109 137/138/109 138/137/109 125/136/109
f 122/136/110 121/139/110 139/138/110 140/137/110
f 118/136/111 120/137/111 141/138/111 115/139/111
f 130/139/112 129/136/112 142/137/112 137/138/112
f 136/139/113 143/136/113 128/137/113 127/138/113
f 144/138/114 145/137/114 146/136/114 147/139/114
f 148/138/115 149/139/115 144/136/115 150/137/115
f 147/139/116 146/136/116 151/137/116 152/138/116
f 189/138/117 123/139/117 126/137/117
f 190/138/118 131/139/118 134/136/118
f 191/138/119 143/139/119 136/137/119
f 137/136/120 142/138/120 192/139/120
f 193/139/121 141/138/121 120/136/121
f 116/136/122 134/138/122 194/139/122
f 126/136/123 195/138/123 189/139/123
f 194/138/124 117/139/124 116/136/124
f 120/139/125 119/138/125 193/136/125
f 192/138/126 138/139/126 137/137/126
f 136/139/127 135/136/127 191/138/127
f 134/136/128 116/138/128 190/139/128
f 152/137/129 151/138/129 196/139/129
f 197/138/130 145/139/130 144/137/130
f 196/139/131 198/138/131 152/136/131
f 144/137/132 149/138/132 197/139/132
usemtl 9
f 153/140/133 154/134/133 155/135/133 156/133/133
f 157/140/134 158/134/134 159/135/134 160/133/134
f 161/140/135 162/134/135 163/135/135 164/133/135
f 165/140/136 166/134/136 167/135/136 168/133/136
f 169/140/137 170/134/137 171/135/137 172/133/137
f 173/140/138 174/134/138 175/135/138 176/133/138
f 177/140/139 178/134/139 179/135/139 180/133/139
f 181/140/140 182/134/140 183/135/140 184/133/140
f 185/140/141 186/134/141 187/135/141 188/133/141
